<?xml version="1.0" standalone="no"?><!DOCTYPE svg PUBLIC "-//W3C//DTD SVG 1.1//EN" "http://www.w3.org/Graphics/SVG/1.1/DTD/svg11.dtd"><svg t="1591111292104" class="icon" viewBox="0 0 1024 1024" version="1.1" xmlns="http://www.w3.org/2000/svg" p-id="5856" xmlns:xlink="http://www.w3.org/1999/xlink" width="48" height="48"><defs><style type="text/css"></style></defs><path d="M843.912533 348.398933c1.194667 2.730667 2.082133 5.461333 2.730667 8.362667 4.471467 13.4144 6.826667 27.716267 6.690133 41.506133 0 52.053333-30.72 99.464533-79.633066 123.904-20.753067 10.410667-44.782933 15.633067-71.4752 15.735467a157.9008 157.9008 0 0 1-95.607467-31.402667 158.037333 158.037333 0 0 1-189.303467 0.1024 158.208 158.208 0 0 1-95.4368 31.6416c-26.043733 0-49.7664-4.949333-70.2464-14.9504C201.966933 499.0976 170.666667 451.413333 170.666667 398.813867a122.88 122.88 0 0 1 6.826666-41.3696c0.546133-2.2528 0.546133-2.2528 1.024-3.754667 0.341333-1.194667 0.341333-1.194667 1.672534-4.573867l56.4224-121.7536C249.514667 192.068267 284.330667 170.666667 325.905067 170.666667h373.998933c41.745067 0.136533 77.994667 21.981867 90.624 56.354133l53.384533 121.378133z m-47.547733 23.722667a26.282667 26.282667 0 0 1-1.024-3.754667l-53.486933-121.685333c-5.12-13.824-21.060267-23.415467-42.052267-23.517867H325.905067c-20.6848 0-35.089067 8.874667-40.789334 24.234667L229.0688 367.957333l-0.4096 1.3312-0.750933 2.491734a80.349867 80.349867 0 0 0-4.744534 26.999466c0 32.0512 19.456 61.713067 51.473067 77.277867 12.970667 6.3488 28.808533 9.659733 47.172267 9.659733 29.832533-0.1024 57.4464-11.946667 76.117333-32.290133a26.282667 26.282667 0 0 1 38.673067 0c18.568533 20.138667 45.8752 31.880533 75.434666 32.085333 29.457067-0.2048 56.7296-12.014933 75.195734-32.187733a26.282667 26.282667 0 0 1 38.7072 0c18.6368 20.309333 46.216533 32.0512 76.1856 32.0512 18.807467-0.1024 34.884267-3.584 48.093866-10.171733 31.505067-15.7696 50.5856-45.2608 50.5856-77.243734a75.776 75.776 0 0 0-4.437333-25.873066zM293.205333 800.836267h437.589334v-183.808a26.282667 26.282667 0 0 1 52.5312 0v210.056533a26.282667 26.282667 0 0 1-26.282667 26.248533H266.9568a26.282667 26.282667 0 0 1-26.282667-26.282666v-210.0224a26.282667 26.282667 0 0 1 52.5312 0v183.808z m43.758934-420.113067a26.282667 26.282667 0 1 1 0-52.5312h350.071466a26.282667 26.282667 0 1 1 0 52.5312H336.964267z" fill="#ff8198" p-id="5857"></path></svg>